<svg xmlns="http://www.w3.org/2000/svg" width="512" height="512" viewBox="0 0 512 512">
<g>
<path d="M 99.90 481.74 C98.03,480.50 95.49,477.48 94.25,475.03 C92.12,470.82 92.00,469.39 92.00,448.94 L 92.00 427.31 L 83.97 426.18 C58.24,422.54 38.46,405.31 30.38,379.50 C28.60,373.81 28.50,368.68 28.50,279.50 C28.50,175.47 28.18,180.85 35.20,166.11 C40.41,155.16 51.95,143.22 62.70,137.67 C70.73,133.52 83.08,130.00 89.62,130.00 L 93.93 130.00 L 94.24 203.25 C94.54,276.00 94.56,276.55 96.82,284.37 C106.99,319.59 132.88,344.85 168.47,354.26 C176.22,356.31 178.95,356.39 247.64,356.75 L 318.78 357.11 L 344.64 379.16 C358.86,391.29 370.63,401.77 370.80,402.46 C371.20,404.16 361.30,413.06 354.24,417.36 C351.07,419.28 344.89,422.12 340.49,423.68 L 332.50 426.50 L 256.82 427.00 L 181.14 427.50 L 151.40 453.00 C135.05,467.02 119.88,479.74 117.68,481.25 C112.44,484.87 104.92,485.08 99.90,481.74 ZM 399.39 381.06 C395.30,380.07 396.98,381.41 361.32,350.78 L 330.21 324.06 L 253.86 323.77 L 177.50 323.49 L 170.10 320.75 C152.73,314.33 140.24,302.96 132.28,286.33 C125.91,273.01 125.88,272.46 126.23,171.83 C126.58,71.67 126.12,78.66 133.24,64.50 C141.37,48.34 156.74,35.72 173.97,31.07 C181.74,28.97 182.36,28.96 307.14,29.23 L 432.50 29.50 L 439.00 31.84 C457.90,38.64 473.43,54.16 480.17,73.00 L 482.50 79.50 L 482.80 173.50 C483.01,239.24 482.77,269.30 482.00,273.50 C481.39,276.80 478.88,283.59 476.43,288.59 C466.87,308.07 447.44,321.69 426.35,323.69 C420.49,324.24 420.17,324.41 419.60,327.26 C419.27,328.90 419.00,339.35 419.00,350.48 C419.00,369.81 418.90,370.85 416.75,374.05 C412.91,379.74 405.80,382.61 399.39,381.06 ZM 256.00 174.48 L 256.00 157.95 L 239.75 158.23 L 223.50 158.50 L 223.23 174.75 L 222.95 191.00 L 239.48 191.00 L 256.00 191.00 L 256.00 174.48 ZM 321.00 174.48 L 321.00 157.95 L 304.75 158.23 L 288.50 158.50 L 288.23 174.75 L 287.95 191.00 L 304.48 191.00 L 321.00 191.00 L 321.00 174.48 ZM 386.00 174.48 L 386.00 157.95 L 369.75 158.23 L 353.50 158.50 L 353.23 174.75 L 352.95 191.00 L 369.48 191.00 L 386.00 191.00 L 386.00 174.48 Z" fill="rgba(0,0,0,1)"/>
</g>
</svg>