<?xml version="1.0" standalone="no"?>
<!DOCTYPE svg PUBLIC "-//W3C//DTD SVG 20010904//EN"
 "http://www.w3.org/TR/2001/REC-SVG-20010904/DTD/svg10.dtd">
<svg version="1.0" xmlns="http://www.w3.org/2000/svg"
 width="1500.000000pt" height="1500.000000pt" viewBox="0 0 1500.000000 1500.000000"
 preserveAspectRatio="xMidYMid meet">
<metadata>
Created by potrace 1.10, written by Peter Selinger 2001-2011
</metadata>
<g transform="translate(0.000000,1500.000000) scale(0.100000,-0.100000)"
fill="#c97a6f" stroke="none">
<path d="M3890 11979 c-538 -12 -690 -33 -1055 -149 -182 -57 -344 -138 -570
-285 -191 -124 -443 -370 -565 -550 -18 -27 -36 -52 -40 -55 -29 -24 -172
-286 -215 -395 -9 -22 -20 -48 -26 -58 -14 -25 -92 -267 -117 -362 -13 -47
-38 -192 -52 -290 -18 -134 -29 -505 -36 -1175 -7 -755 -2 -699 -88 -961 -29
-90 -67 -209 -84 -264 -18 -55 -45 -143 -61 -195 -97 -315 -124 -398 -137
-428 -8 -18 -14 -39 -14 -47 0 -8 -6 -29 -14 -47 -8 -18 -28 -78 -45 -133 -69
-225 -85 -277 -133 -430 -28 -88 -68 -212 -88 -275 -36 -111 -54 -167 -155
-495 -26 -82 -52 -164 -58 -182 -16 -46 3 -83 42 -83 24 0 49 21 152 132 68
73 178 189 244 258 67 69 170 177 230 240 60 63 168 176 240 250 71 75 202
212 290 305 88 93 257 271 376 395 118 124 245 257 281 295 l66 70 239 -3
c131 -1 564 -7 963 -12 1258 -17 1312 -17 1405 9 44 13 100 35 125 49 l45 27
1175 6 c1145 6 1278 10 1360 39 19 7 53 19 75 27 217 77 409 243 520 448 51
94 105 267 105 338 0 105 30 249 65 312 64 116 114 159 258 219 34 14 211 16
1810 16 1951 0 1896 -2 2108 61 88 27 219 91 297 147 112 81 244 227 301 333
86 159 93 179 132 349 16 66 24 1353 10 1538 -6 81 -15 161 -20 177 -5 17 -17
57 -27 90 -22 75 -103 233 -158 305 -49 64 -153 172 -216 222 -130 104 -359
189 -560 208 -128 12 -7837 20 -8380 9z m8453 -549 c191 -64 345 -242 377
-435 17 -101 17 -1388 1 -1470 -41 -204 -162 -350 -353 -428 l-53 -22 -1850
-6 c-1190 -4 -1875 -10 -1920 -17 -67 -10 -86 -15 -165 -42 -19 -7 -48 -13
-65 -14 l-30 -1 0 445 0 445 255 5 c293 6 300 8 300 72 0 34 -10 57 -54 122
-86 131 -150 230 -159 246 -8 16 -11 22 -110 172 -38 56 -138 209 -222 338
-84 129 -170 259 -190 288 l-37 53 -51 -3 -52 -3 -85 -127 c-47 -71 -103 -156
-124 -190 -22 -35 -96 -148 -164 -253 -69 -104 -139 -212 -157 -240 -17 -27
-75 -115 -127 -195 -134 -204 -135 -207 -99 -251 19 -24 21 -24 283 -29 l263
-5 3 -805 c3 -985 1 -1022 -87 -1158 -82 -125 -193 -206 -326 -236 -74 -16
-155 -17 -1055 -14 l-975 3 -8 80 c-16 163 -49 263 -123 376 -66 100 -149 161
-276 205 -99 34 -250 41 -1178 54 -410 6 -801 15 -869 20 -144 12 -187 29
-236 98 l-30 44 2 409 c2 328 7 445 23 596 28 261 66 439 110 515 6 10 10 24
10 31 0 28 104 169 171 231 175 162 336 232 589 256 66 7 288 8 600 4 511 -7
579 -4 690 33 136 46 303 189 364 315 58 118 70 174 72 343 1 83 3 153 3 158
1 4 1588 7 3529 7 3473 0 3528 -1 3585 -20z"/>
<path d="M11106 11187 c-56 -16 -119 -81 -137 -142 -19 -68 -21 -1536 -2
-1601 26 -85 92 -140 197 -164 81 -18 184 15 245 79 50 53 55 81 59 316 2 131
8 225 14 233 8 9 104 12 417 12 460 0 469 1 547 76 64 63 66 80 62 584 -3 417
-4 437 -24 480 -11 25 -36 59 -54 77 -65 63 -67 63 -707 62 -379 -1 -591 -5
-617 -12z m892 -635 l3 -112 -28 -11 c-17 -6 -112 -9 -256 -7 -189 2 -229 6
-237 18 -11 17 -14 189 -4 214 6 15 35 16 263 14 l256 -3 3 -113z"/>
<path d="M9223 11150 c-56 -32 -82 -63 -113 -135 -19 -44 -20 -68 -20 -441 0
-312 3 -413 16 -486 15 -91 39 -187 54 -218 4 -8 18 -37 30 -65 56 -122 161
-252 271 -334 76 -58 222 -136 283 -152 175 -45 219 -49 534 -49 258 0 309 2
358 18 66 20 106 55 134 117 19 43 20 68 20 820 0 752 -1 777 -20 819 -21 48
-61 86 -121 116 -29 15 -58 20 -121 20 -74 0 -89 -4 -135 -30 -72 -41 -102
-84 -113 -162 -5 -35 -10 -307 -10 -606 0 -355 -4 -550 -10 -563 -9 -17 -22
-19 -103 -19 -100 0 -253 23 -304 46 -17 8 -36 14 -42 14 -17 0 -117 102 -136
140 -10 18 -26 63 -36 99 -17 60 -19 105 -19 476 l0 410 -24 50 c-25 52 -69
98 -123 128 -22 12 -54 17 -115 17 -74 0 -89 -4 -135 -30z"/>
<path d="M3545 10431 c-48 -22 -97 -70 -122 -120 -17 -34 -18 -86 -18 -831 0
-884 -4 -826 67 -899 49 -50 105 -71 192 -71 107 0 175 38 222 123 l29 52 3
265 c2 146 7 269 12 273 4 5 140 9 301 8 266 0 295 -2 306 -18 10 -12 13 -82
13 -270 0 -229 2 -258 19 -296 41 -90 123 -137 236 -137 114 0 184 40 234 135
21 39 21 46 21 833 l0 793 -25 49 c-60 118 -220 166 -349 105 -59 -28 -85 -52
-115 -110 -20 -37 -21 -55 -21 -297 0 -245 -1 -259 -20 -278 -19 -19 -33 -20
-293 -20 -230 0 -276 2 -295 16 -22 15 -22 19 -22 253 0 318 -16 370 -134 431
-50 25 -69 30 -130 29 -45 0 -86 -7 -111 -18z"/>
<path d="M5790 10430 c-99 -23 -125 -32 -187 -65 -187 -98 -299 -275 -338
-533 -22 -146 -22 -1069 0 -1134 32 -94 130 -158 241 -158 107 0 187 47 231
138 27 55 28 62 33 278 3 122 9 226 13 231 5 4 130 8 277 8 245 0 271 -2 287
-18 16 -16 19 -45 23 -255 4 -203 8 -242 23 -270 100 -183 379 -172 466 18 14
31 16 123 19 788 2 490 -1 773 -8 810 -13 73 -53 131 -110 159 -44 21 -52 22
-470 21 -370 0 -435 -3 -500 -18z m570 -489 c16 -31 13 -223 -4 -247 -14 -18
-29 -19 -291 -19 -308 0 -295 -3 -295 73 0 75 33 135 101 177 48 31 56 32 281
34 186 1 198 0 208 -18z"/>
</g>
</svg>
