<!DOCTYPE svg PUBLIC "-//W3C//DTD SVG 1.1//EN" "http://www.w3.org/Graphics/SVG/1.1/DTD/svg11.dtd">
<!-- Uploaded to: SVG Repo, www.svgrepo.com, Transformed by: SVG Repo Mixer Tools -->
<svg width="800px" height="800px" viewBox="0 0 24 24" fill="none" xmlns="http://www.w3.org/2000/svg">
<g id="SVGRepo_bgCarrier" stroke-width="0"/>
<g id="SVGRepo_tracerCarrier" stroke-linecap="round" stroke-linejoin="round"/>
<g id="SVGRepo_iconCarrier">
<path d="M12 1.25a1.75 1.75 0 0 0-1.737 1.967A7.003 7.003 0 0 0 5 10v7H4a1 1 0 1 0 0 2h16a1 1 0 1 0 0-2h-1v-7a7.003 7.003 0 0 0-5.263-6.783A1.75 1.75 0 0 0 12 1.25ZM12 23a3 3 0 0 1-3-3h6a3 3 0 0 1-3 3Z" fill="#c97a6f"/>
</g>
</svg>